G04 EAGLE Gerber RS-274X export*
G75*
%MOMM*%
%FSLAX34Y34*%
%LPD*%
%INBottom Copper*%
%IPPOS*%
%AMOC8*
5,1,8,0,0,1.08239X$1,22.5*%
G01*
G04 Define Apertures*
%ADD10C,0.254000*%
G36*
X730335Y250260D02*
X730038Y250200D01*
X443762Y250200D01*
X443487Y250251D01*
X443232Y250415D01*
X443060Y250665D01*
X443000Y250962D01*
X443000Y284719D01*
X443051Y284993D01*
X443215Y285249D01*
X443465Y285420D01*
X443762Y285481D01*
X445167Y285481D01*
X449820Y287408D01*
X453381Y290969D01*
X455309Y295622D01*
X455309Y300659D01*
X453381Y305312D01*
X449820Y308873D01*
X445167Y310801D01*
X443762Y310801D01*
X443487Y310852D01*
X443232Y311015D01*
X443060Y311265D01*
X443000Y311563D01*
X443000Y349438D01*
X443051Y349713D01*
X443215Y349968D01*
X443465Y350140D01*
X443762Y350200D01*
X730038Y350200D01*
X730313Y350149D01*
X730568Y349985D01*
X730740Y349735D01*
X730800Y349438D01*
X730800Y250962D01*
X730749Y250687D01*
X730585Y250432D01*
X730335Y250260D01*
G37*
%LPC*%
G36*
X460032Y305190D02*
X465168Y305190D01*
X469913Y307155D01*
X473545Y310787D01*
X475510Y315532D01*
X475510Y320668D01*
X473545Y325413D01*
X469913Y329045D01*
X465168Y331010D01*
X460032Y331010D01*
X455287Y329045D01*
X451655Y325413D01*
X449690Y320668D01*
X449690Y315532D01*
X451655Y310787D01*
X455287Y307155D01*
X460032Y305190D01*
G37*
G36*
X460032Y265200D02*
X465168Y265200D01*
X469913Y267165D01*
X473545Y270797D01*
X475510Y275542D01*
X475510Y280678D01*
X473545Y285423D01*
X469913Y289055D01*
X465168Y291020D01*
X460032Y291020D01*
X455287Y289055D01*
X451655Y285423D01*
X449690Y280678D01*
X449690Y275542D01*
X451655Y270797D01*
X455287Y267165D01*
X460032Y265200D01*
G37*
%LPD*%
D10*
X0Y0D02*
X1600000Y0D01*
X1600000Y1000000D01*
X0Y1000000D01*
X0Y0D01*
M02*
